HIERARCHY
ROOT Hips
{
	OFFSET	0.000000	0.000000	0.000000
	CHANNELS 6 Xposition Yposition Zposition Zrotation Xrotation Yrotation
	JOINT LeftHip
	{
		OFFSET	4.740440	-3.195970	-0.322709
		CHANNELS 3 Zrotation Xrotation Yrotation
		JOINT LeftKnee
		{
			OFFSET	-1.605680	-15.592300	1.005510
			CHANNELS 3 Zrotation Xrotation Yrotation
			JOINT LeftAnkle
			{
				OFFSET	-0.632401	-16.421000	-1.413730
				CHANNELS 3 Zrotation Xrotation Yrotation
				End Site
				{
					OFFSET	0.008423	-2.933000	-1.684880
				}
			}
		}
	}
	JOINT RightHip
	{
		OFFSET	-4.740440	-3.195970	-0.322709
		CHANNELS 3 Zrotation Xrotation Yrotation
		JOINT RightKnee
		{
			OFFSET	1.605680	-15.592300	1.005510
			CHANNELS 3 Zrotation Xrotation Yrotation
			JOINT RightAnkle
			{
				OFFSET	0.632401	-16.421000	-1.413730
				CHANNELS 3 Zrotation Xrotation Yrotation
				End Site
				{
					OFFSET	-0.008423	-2.933000	-1.684880
				}
			}
		}
	}
	JOINT Chest
	{
		OFFSET	0.000000	3.468200	0.078401
		CHANNELS 3 Zrotation Xrotation Yrotation
		JOINT LeftCollar
		{
			OFFSET	3.857650	15.070700	-0.011583
			CHANNELS 3 Zrotation Xrotation Yrotation
			JOINT LeftShoulder
			{
				OFFSET	3.979720	-1.940530	-0.165223
				CHANNELS 3 Zrotation Xrotation Yrotation
				JOINT LeftElbow
				{
					OFFSET	0.615844	-10.986600	-0.673886
					CHANNELS 3 Zrotation Xrotation Yrotation
					JOINT LeftWrist
					{
						OFFSET	0.826843	-10.854500	1.034220
						CHANNELS 3 Zrotation Xrotation Yrotation
						End Site
						{
							OFFSET	-1.679080	-8.456540	0.936217
						}
					}
				}
			}
		}
		JOINT RightCollar
		{
			OFFSET	-3.857650	15.070700	-0.011583
			CHANNELS 3 Zrotation Xrotation Yrotation
			JOINT RightShoulder
			{
				OFFSET	-3.979720	-1.940530	-0.165223
				CHANNELS 3 Zrotation Xrotation Yrotation
				JOINT RightElbow
				{
					OFFSET	-0.615845	-10.986600	-0.673886
					CHANNELS 3 Zrotation Xrotation Yrotation
					JOINT RightWrist
					{
						OFFSET	-0.826843	-10.854500	1.034220
						CHANNELS 3 Zrotation Xrotation Yrotation
						End Site
						{
							OFFSET	1.679080	-8.456540	0.936217
						}
					}
				}
			}
		}
		JOINT Neck
		{
			OFFSET	0.000000	15.101400	0.055730
			CHANNELS 3 Zrotation Xrotation Yrotation
			JOINT Head
			{
				OFFSET	0.000000	4.185120	1.488260
				CHANNELS 3 Zrotation Xrotation Yrotation
				End Site
				{
					OFFSET	0.000000	7.773420	-0.106016
				}
			}
		}
	}
}
MOTION
Frames:     8
Frame Time: 0.016667
-16.551161	37.083141	75.590477	-2.374282	-5.921930	-17.844570	14.410036	-8.360179	0.516166	0.357887	59.545788	3.852221	7.319809	1.632714	9.406140	-0.383287	-9.273177	-5.363729	6.270176	18.795534	7.991138	-4.374387	-1.116571	1.454184	4.009381	20.384720	-6.227319	5.098939	0.943749	-0.982633	4.412971	11.185181	7.295263	-14.860926	-35.796211	-26.501129	2.855843	8.424045	-33.998837	-5.459992	0.268322	-3.536057	-7.218834	21.415020	-3.848760	13.941237	-33.550289	24.132048	-19.909845	-3.236355	17.035421	9.193887	21.130676	-9.436619	-0.920134	28.874348	5.995238	
-16.836943	37.192760	75.905060	-2.510804	-5.784689	-18.211397	14.182899	-10.013838	2.159699	0.521745	58.921265	2.803708	6.370773	1.091533	9.074508	0.198888	-7.973326	-5.220496	6.070572	17.399643	7.902223	-3.585502	-0.990756	1.836395	4.213393	20.003620	-5.649187	5.025926	1.376405	-0.665997	3.455303	11.505415	7.574873	-14.752937	-35.375092	-25.182323	3.415157	8.332200	-31.465240	-5.827075	0.507595	-3.517747	-7.406944	21.598011	-3.881659	14.042465	-34.483791	24.468960	-19.626295	-2.425007	17.349010	8.456145	21.215055	-8.681996	-1.412601	29.021502	6.774540	
-16.941399	37.215130	76.009590	-2.703787	-5.738021	-18.578880	14.279750	-10.448335	2.855138	0.506104	58.738201	2.537295	6.048193	0.913826	8.869105	0.567985	-7.491809	-4.970852	6.015926	16.900003	7.609571	-3.387423	-0.941541	2.271969	4.370830	19.839233	-5.143198	5.064214	1.716342	-0.269875	3.139612	11.518821	7.335650	-14.795135	-35.330410	-24.820148	3.740951	8.126578	-30.597357	-6.109286	0.494297	-3.464353	-7.622216	21.831522	-3.875592	14.091490	-34.936119	24.684029	-19.593643	-2.020307	17.762814	8.010126	21.229427	-8.068469	-1.214782	29.203413	6.622222	
-17.168270	37.309250	76.323608	-2.882424	-5.699514	-18.920376	14.111754	-11.876470	3.928228	0.053246	58.189381	1.903051	5.194636	0.582494	8.255116	1.165088	-6.058990	-4.875671	5.616651	15.434932	7.719831	-2.822885	-0.891258	2.598413	4.450599	19.616590	-4.680108	5.192055	2.039744	0.185204	2.413222	12.035991	7.760363	-15.085559	-35.371483	-24.123253	4.741742	7.355237	-28.071344	-6.289331	0.472444	-3.357955	-7.859966	22.068951	-3.876576	14.033769	-35.258194	24.802509	-19.604517	-1.724370	18.162998	7.635811	21.334467	-7.398173	-2.071305	29.257030	7.684545	
-17.247231	37.325787	76.449455	-3.053643	-5.662893	-19.249828	14.242515	-12.261281	4.411524	-0.242381	58.041603	1.733262	4.974484	0.507396	8.105852	1.481237	-5.569806	-4.622323	5.508817	14.986979	7.514940	-2.698354	-0.950695	2.920211	4.542084	19.374676	-4.142436	5.288231	2.311157	0.515623	2.226972	12.201514	7.510765	-15.248529	-35.439014	-24.033098	5.106059	7.105104	-27.334740	-6.445498	0.453812	-3.344653	-8.146139	22.267750	-3.961338	13.945459	-35.448872	24.875565	-19.656172	-1.543530	18.481577	7.542785	21.508745	-7.293698	-3.250997	29.168648	9.190317	
-17.463202	37.386745	76.758896	-3.224733	-5.626472	-19.572996	14.087933	-13.610684	4.894304	-1.374566	57.767242	1.521346	3.376845	0.050568	7.686717	2.079427	-4.240375	-4.516212	5.086460	13.713340	7.613981	-2.522135	-1.092432	3.223223	4.619812	19.132833	-3.671297	5.401870	2.536910	0.881521	1.839220	12.733998	7.904381	-15.711043	-35.666359	-24.020266	6.111689	6.341016	-25.619785	-6.552083	0.425384	-3.260368	-8.392454	22.426319	-4.140718	13.785525	-35.560764	24.850042	-19.785505	-1.364865	18.696352	7.295477	21.500711	-6.440471	-3.376830	29.418917	9.254053	
-17.536507	37.396530	76.895401	-3.369277	-5.595312	-19.841526	14.169233	-14.020286	5.101397	-1.799181	57.765949	1.621397	2.336640	-0.249079	7.527774	2.351975	-3.807202	-4.342521	4.968594	13.410925	7.586355	-2.518698	-1.202705	3.373613	4.707849	19.029839	-3.312940	5.480713	2.573413	1.274985	1.767339	12.964076	7.683083	-15.870441	-35.743034	-24.081261	6.409038	6.123150	-25.260284	-6.616863	0.408849	-3.231864	-8.642079	22.345337	-4.244193	13.800226	-35.413525	24.759783	-19.882879	-1.285009	18.784477	7.274625	21.535133	-6.188262	-3.956216	29.389004	9.908574	
-17.702450	37.435852	77.183884	-3.581201	-5.644652	-20.058260	14.129897	-15.382830	5.046280	-3.240875	57.978771	2.453107	2.200454	0.377068	7.920962	2.826697	-2.599401	-4.381194	4.638183	12.465199	7.873338	-2.387023	-1.386067	3.462553	4.885104	18.753235	-2.796575	5.470692	2.768088	1.329939	1.762061	13.475913	8.134427	-16.463179	-35.924118	-24.354120	7.197071	5.691188	-24.885408	-6.746123	0.302283	-3.164207	-8.741044	22.617157	-4.551212	13.154805	-35.500706	24.285770	-20.260221	-1.004975	18.774893	7.275079	21.616255	-5.542856	-4.070014	29.690248	9.751040	
